<?xml version="1.0" encoding="UTF-8"?>
<svg version="1.1" xmlns="http://www.w3.org/2000/svg" width="1536" height="1024">
<path d="M0 0 C506.88 0 1013.76 0 1536 0 C1536 337.92 1536 675.84 1536 1024 C1029.12 1024 522.24 1024 0 1024 C0 686.08 0 348.16 0 0 Z " fill="#FDFDFD" transform="translate(0,0)"/>
<path d="M0 0 C0.00410889 0.79583496 0.00821777 1.59166992 0.01245117 2.41162109 C0.04563183 6.06680188 0.1163059 9.72036977 0.1875 13.375 C0.19330078 14.62667969 0.19910156 15.87835938 0.20507812 17.16796875 C0.41233348 25.96480706 1.61938752 33.32506604 7.81323242 39.93505859 C14.08901638 45.75757635 20.07512457 46.50610404 28.4765625 46.3828125 C34.73160551 45.70321803 38.76749689 43.05148935 43.3125 38.875 C48.30832137 30.36360063 49.61873509 22.05593615 49.75 12.3125 C49.77964844 11.21744141 49.80929687 10.12238281 49.83984375 8.99414062 C49.9096634 6.32935722 49.96278893 3.66540363 50 1 C55.41942738 1.57205067 60.52075171 2.49758404 65.75 4.0625 C66.82930786 4.38468506 66.82930786 4.38468506 67.93041992 4.71337891 C80.71216998 8.65568207 93.39295914 13.27698854 104.4921875 20.84765625 C107.79894725 22.3671175 109.48168261 21.80657933 113 21 C115.7132638 19.90454053 115.7132638 19.90454053 118.38671875 18.48828125 C119.39879395 17.98022949 120.41086914 17.47217773 121.45361328 16.94873047 C122.5207959 16.40877441 123.58797852 15.86881836 124.6875 15.3125 C134.60384776 10.41298131 144.39757581 6.43665487 155.06738281 3.53417969 C156.94021964 3.01652343 158.79502924 2.43496938 160.6484375 1.8515625 C163.91995975 1.02033657 166.64262911 0.83622581 170 1 C170.01981934 1.62455078 170.03963867 2.24910156 170.06005859 2.89257812 C170.15616932 5.76209381 170.26549487 8.63096547 170.375 11.5 C170.42140625 12.97339844 170.42140625 12.97339844 170.46875 14.4765625 C170.86676604 24.42696348 172.33917663 33.11572307 179.484375 40.54296875 C185.70344658 46.00869918 191.44690906 46.50064809 199.4765625 46.3828125 C205.87687146 45.68743525 210.06541793 43.03379141 214.4375 38.4375 C218.33507766 32.35727885 219.06680406 26.92936861 219.31640625 19.7265625 C219.35830078 18.57285156 219.40019531 17.41914063 219.44335938 16.23046875 C219.50233398 14.44576172 219.50233398 14.44576172 219.5625 12.625 C219.60568359 11.41199219 219.64886719 10.19898438 219.69335938 8.94921875 C219.79905513 5.96624968 219.90115321 2.98320258 220 0 C236.03369715 -0.3612097 253.92436169 4.68050188 266.6640625 14.7421875 C276.13379278 23.89520439 280.56090391 36.64623219 281.16796875 49.578125 C281.20916913 57.32379631 280.79517799 64.46647851 279 72 C278.76667969 73.08023438 278.53335937 74.16046875 278.29296875 75.2734375 C270.69170786 107.27509294 251.29409872 134.63529665 229.3203125 158.45703125 C227.40414871 160.55706934 225.57049275 162.69315316 223.75 164.875 C216.03360605 173.73793362 206.85142239 181.49878733 197.703125 188.828125 C194.80642402 191.15553214 191.96611535 193.54263314 189.125 195.9375 C164.71815603 216.27131481 138.10024044 233.19698847 110.35546875 248.58203125 C109.62094482 248.99042236 108.8864209 249.39881348 108.12963867 249.81958008 C106.75112407 250.58366561 105.3699302 251.34294552 103.9855957 252.09643555 C100.50005888 253.99950498 100.50005888 253.99950498 97.5 256.5625 C95.60901004 258.37469871 93.52003217 259.14850102 91.11572266 260.11962891 C86.72019242 261.94864829 82.47166711 264.11423771 78.1875 266.1875 C75.97939494 267.24656981 73.77104731 268.30513399 71.5625 269.36328125 C66.78901687 271.6511857 62.02651238 273.96062302 57.26957703 276.2827301 C54.17831811 277.78753314 51.08061555 279.27873839 47.9815979 280.76748657 C46.45407069 281.50492541 44.92928263 282.24806564 43.40731812 282.99691772 C41.26140694 284.05179103 39.10680959 285.08646211 36.94921875 286.1171875 C36.30545288 286.43942795 35.66168701 286.7616684 34.99841309 287.09367371 C30.56971083 289.17438995 30.56971083 289.17438995 27.74365234 288.30932617 C26.88054443 287.66120972 26.88054443 287.66120972 26 287 C25.06027344 286.31808594 24.12054688 285.63617187 23.15234375 284.93359375 C22.07756409 284.10565504 21.00610813 283.27338903 19.9375 282.4375 C19.36531738 281.99277344 18.79313477 281.54804687 18.20361328 281.08984375 C9.79890997 274.53189292 1.63410978 267.79107498 -6.19921875 260.5546875 C-8.3195 258.62070712 -10.46254106 256.74532038 -12.640625 254.87890625 C-17.50636883 250.63377255 -22.06471583 246.08577353 -26.6184082 241.51196289 C-28.06025221 240.06475615 -29.50737116 238.62297974 -30.95507812 237.18164062 C-36.1815871 231.95949542 -41.24147094 226.65376608 -46 221 C-46.47332764 220.44401123 -46.94665527 219.88802246 -47.43432617 219.31518555 C-66.02167117 197.26713368 -83.53987648 171.48606846 -90 143 C-86.76456871 146.06630647 -84.15317342 149.36013784 -81.5 152.9375 C-76.11918439 160.06347247 -70.1728995 166.55861629 -64 173 C-63.28972656 173.75152344 -62.57945312 174.50304687 -61.84765625 175.27734375 C-46.63031152 190.99259751 -27.79232092 203.0367045 -9 214 C-8.32855957 214.39203613 -7.65711914 214.78407227 -6.96533203 215.18798828 C15.39620952 228.14588798 38.69404418 238.33504279 63 247 C64.33502563 247.47796021 64.33502563 247.47796021 65.69702148 247.96557617 C66.48665283 248.23990479 67.27628418 248.5142334 68.08984375 248.796875 C68.7562085 249.02858398 69.42257324 249.26029297 70.10913086 249.49902344 C73.13758631 250.30139795 75.88615173 250.19875627 79 250 C79 249.34 79 248.68 79 248 C78.43982178 247.78013428 77.87964355 247.56026855 77.30249023 247.33374023 C47.66632975 235.60009421 18.29495448 222.51670184 -9 206 C-9.67337402 205.59297852 -10.34674805 205.18595703 -11.04052734 204.76660156 C-19.81475299 199.41093454 -27.97995153 193.40996298 -36 187 C-36.9590625 186.23558594 -37.918125 185.47117187 -38.90625 184.68359375 C-45.12762802 179.65930673 -51.15446046 174.45704155 -57 169 C-57.88558594 168.18015625 -58.77117187 167.3603125 -59.68359375 166.515625 C-78.94485491 148.04667104 -93.33647696 124.15351816 -94.38769531 97.09277344 C-94.90496579 70.81340445 -84.66726882 46.07034737 -66.5625 27.125 C-48.51068619 10.08131541 -24.93064133 -0.34024448 0 0 Z " fill="#F1F6FA" transform="translate(274,334)"/>
<path d="M0 0 C0.00410889 0.79583496 0.00821777 1.59166992 0.01245117 2.41162109 C0.04563183 6.06680188 0.1163059 9.72036977 0.1875 13.375 C0.19330078 14.62667969 0.19910156 15.87835938 0.20507812 17.16796875 C0.41233348 25.96480706 1.61938752 33.32506604 7.81323242 39.93505859 C14.08901638 45.75757635 20.07512457 46.50610404 28.4765625 46.3828125 C34.73160551 45.70321803 38.76749689 43.05148935 43.3125 38.875 C48.30832137 30.36360063 49.61873509 22.05593615 49.75 12.3125 C49.77964844 11.21744141 49.80929687 10.12238281 49.83984375 8.99414062 C49.9096634 6.32935722 49.96278893 3.66540363 50 1 C55.41942738 1.57205067 60.52075171 2.49758404 65.75 4.0625 C66.82930786 4.38468506 66.82930786 4.38468506 67.93041992 4.71337891 C80.71216998 8.65568207 93.39295914 13.27698854 104.4921875 20.84765625 C107.79894725 22.3671175 109.48168261 21.80657933 113 21 C115.7132638 19.90454053 115.7132638 19.90454053 118.38671875 18.48828125 C119.39879395 17.98022949 120.41086914 17.47217773 121.45361328 16.94873047 C122.5207959 16.40877441 123.58797852 15.86881836 124.6875 15.3125 C134.60384776 10.41298131 144.39757581 6.43665487 155.06738281 3.53417969 C156.94021964 3.01652343 158.79502924 2.43496938 160.6484375 1.8515625 C163.91995975 1.02033657 166.64262911 0.83622581 170 1 C170.01981934 1.62455078 170.03963867 2.24910156 170.06005859 2.89257812 C170.15616932 5.76209381 170.26549487 8.63096547 170.375 11.5 C170.42140625 12.97339844 170.42140625 12.97339844 170.46875 14.4765625 C170.86676604 24.42696348 172.33917663 33.11572307 179.484375 40.54296875 C185.70344658 46.00869918 191.44690906 46.50064809 199.4765625 46.3828125 C205.87687146 45.68743525 210.06541793 43.03379141 214.4375 38.4375 C218.33507766 32.35727885 219.06680406 26.92936861 219.31640625 19.7265625 C219.35830078 18.57285156 219.40019531 17.41914063 219.44335938 16.23046875 C219.50233398 14.44576172 219.50233398 14.44576172 219.5625 12.625 C219.60568359 11.41199219 219.64886719 10.19898438 219.69335938 8.94921875 C219.79905513 5.96624968 219.90115321 2.98320258 220 0 C236.03369715 -0.3612097 253.92436169 4.68050188 266.6640625 14.7421875 C276.13379278 23.89520439 280.56090391 36.64623219 281.16796875 49.578125 C281.20914717 57.31966703 280.8075845 64.47182138 279 72 C278.731875 73.16144531 278.46375 74.32289063 278.1875 75.51953125 C275.96831777 84.49797268 272.87553175 92.61593298 269 101 C268.67 101 268.34 101 268 101 C268 95.39 268 89.78 268 84 C159.43 84 50.86 84 -61 84 C-61.56786717 113.78097567 -61.56786717 113.78097567 -56.4375 143.5625 C-56.17428955 144.35914063 -55.9110791 145.15578125 -55.63989258 145.9765625 C-51.39047695 158.24362736 -44.55862424 168.26813728 -36 178 C-35.31808594 178.80308594 -34.63617188 179.60617187 -33.93359375 180.43359375 C-22.73095186 193.43391985 -8.70643899 203.34797815 6 212 C7.66726601 212.99900042 9.33414447 213.99864934 11 215 C10.34 215.33 9.68 215.66 9 216 C7.34277344 215.33837891 7.34277344 215.33837891 5.359375 214.2265625 C4.62549561 213.81857422 3.89161621 213.41058594 3.13549805 212.99023438 C2.34828369 212.53970703 1.56106934 212.08917969 0.75 211.625 C-0.05977295 211.16673828 -0.8695459 210.70847656 -1.70385742 210.23632812 C-13.82347799 203.31560357 -25.100307 195.71149706 -36 187 C-36.9590625 186.23558594 -37.918125 185.47117187 -38.90625 184.68359375 C-45.12762802 179.65930673 -51.15446046 174.45704155 -57 169 C-57.88558594 168.18015625 -58.77117187 167.3603125 -59.68359375 166.515625 C-78.94485491 148.04667104 -93.33647696 124.15351816 -94.38769531 97.09277344 C-94.90496579 70.81340445 -84.66726882 46.07034737 -66.5625 27.125 C-48.51068619 10.08131541 -24.93064133 -0.34024448 0 0 Z " fill="#58CCBC" transform="translate(274,334)"/>
<path d="M0 0 C17.63686839 13.64940249 25.08404814 38.07622229 28.53051758 59.26098633 C29.27863403 65.21907446 29.22466011 71.18009251 29.24023438 77.17553711 C29.24984079 79.40062302 29.28087503 81.62474334 29.3125 83.84960938 C29.64927029 129.52205986 2.33084124 171.74100327 -28.50390625 203.5859375 C-29.9992132 205.0685938 -31.50141759 206.54433912 -33.01171875 208.01171875 C-34.83372286 209.83372286 -36.47872653 211.70780405 -38.125 213.6875 C-51.36766644 229.06608038 -68.09075217 242.18319387 -84.12060547 254.53710938 C-86.10783313 256.08393558 -88.07235774 257.65668547 -90.03515625 259.234375 C-113.01889987 277.59771596 -138.22844372 292.8931615 -164 307 C-165.00160156 307.56074219 -166.00320313 308.12148438 -167.03515625 308.69921875 C-168.34806641 309.40498047 -168.34806641 309.40498047 -169.6875 310.125 C-170.41324219 310.51945312 -171.13898438 310.91390625 -171.88671875 311.3203125 C-175.96776558 312.63288579 -178.73475783 311.12448936 -182.50390625 309.35546875 C-183.86134644 308.6414444 -185.21393815 307.9181542 -186.5625 307.1875 C-187.30209961 306.79006592 -188.04169922 306.39263184 -188.80371094 305.9831543 C-210.09654274 294.41067343 -230.17582172 280.90267048 -250 267 C-248.44548995 263.8909799 -245.87969004 263.43428115 -242.73828125 262.05078125 C-241.39308931 261.45187285 -240.04795865 260.85282681 -238.70288086 260.25366211 C-237.63068802 259.78015823 -237.63068802 259.78015823 -236.53683472 259.29708862 C-211.77991398 248.3385839 -187.69036048 236.4857592 -164.48583984 222.49707031 C-162.31683701 221.19081168 -160.14025203 219.89947583 -157.95703125 218.6171875 C-143.83888306 210.29719396 -129.64794957 201.75712265 -116.54296875 191.90234375 C-114.08963452 190.06705378 -111.59181897 188.30633072 -109.08007812 186.55224609 C-101.05432353 180.92313258 -93.43863911 174.85280221 -85.90673828 168.58203125 C-84.17577446 167.14584104 -82.43182499 165.72755881 -80.68359375 164.3125 C-72.69669882 157.75291173 -65.36629928 150.54990392 -58.0625 143.25 C-57.5656369 142.75413391 -57.0687738 142.25826782 -56.55685425 141.74737549 C-25.65452837 110.83801691 3.29417775 68.31187848 3.31347656 22.95483398 C3.16416216 15.11831666 1.74408432 7.61998746 0 0 Z " fill="#369874" transform="translate(560,362)"/>
<path d="M0 0 C8.25 0 16.5 0 25 0 C25 15.84 25 31.68 25 48 C43.48 48 61.96 48 81 48 C81 32.16 81 16.32 81 0 C89.25 0 97.5 0 106 0 C106 38.94 106 77.88 106 118 C97.75 118 89.5 118 81 118 C81 102.16 81 86.32 81 70 C62.85 70 44.7 70 26 70 C26 85.84 26 101.68 26 118 C17.42 118 8.84 118 0 118 C0 79.06 0 40.12 0 0 Z " fill="#197CC3" transform="translate(657,424)"/>
<path d="M0 0 C4.02617814 2.12492735 7.4477071 4.42408824 10.8125 7.484375 C11.69808594 8.19980469 11.69808594 8.19980469 12.6015625 8.9296875 C20.88675747 16.19292009 25.30464318 27.14126492 26.05078125 37.9296875 C26.31887976 51.22172958 23.23568098 62.01969786 14.8125 72.484375 C3.15611982 83.96706739 -9.95364985 86.947587 -25.81958008 86.91601562 C-38.66666513 86.65057556 -48.52622123 82.04922575 -58.1875 73.484375 C-68.41918103 62.50663389 -70.91408559 49.73786791 -70.5546875 35.19140625 C-69.91307722 23.79031005 -64.15323814 16.21542068 -56.1875 8.484375 C-55.30384766 7.5871875 -55.30384766 7.5871875 -54.40234375 6.671875 C-49.92223458 2.43536515 -44.93727515 0.51805753 -39.1875 -1.515625 C-38.41607666 -1.8556958 -37.64465332 -2.1957666 -36.84985352 -2.54614258 C-25.95855087 -6.51215476 -10.43732043 -4.46596884 0 0 Z " fill="#58AB50" transform="translate(1256.1875,457.515625)"/>
<path d="M0 0 C1.83984375 1.7109375 1.83984375 1.7109375 3 3 C1.48103632 7.43170173 -0.92639809 11.03024076 -3.625 14.8125 C-4.04523438 15.40998047 -4.46546875 16.00746094 -4.8984375 16.62304688 C-5.92779728 18.08520565 -6.9632823 19.54304899 -8 21 C-11.47550205 20.33876759 -14.03116853 18.91969109 -17.0625 17.125 C-28.62412291 10.78819482 -40.9245933 9.25773798 -53.9140625 11.50390625 C-58.66632536 12.89461863 -62.08697547 14.86538454 -65 19 C-65.53148378 22.72038648 -65.29579948 25.1520415 -64.0625 28.6875 C-57.9548762 35.53544184 -47.27198814 36.72789504 -38.625 37.8125 C-22.73663452 40.03106876 -6.79813213 43.81851766 3.62890625 56.99609375 C8.8887627 64.68357625 9.38263367 73.93233935 8 83 C4.69694519 93.36596988 -1.261127 100.2235944 -10.75 105.25 C-29.89709137 114.21399409 -53.2803506 114.61434722 -73.17578125 107.93359375 C-80.14408657 105.25075193 -86.17339773 101.66570428 -92 97 C-92.60714844 96.51789063 -93.21429687 96.03578125 -93.83984375 95.5390625 C-94.41412109 94.77722656 -94.41412109 94.77722656 -95 94 C-94.54439473 90.99050446 -93.49638315 88.98239721 -91.71484375 86.546875 C-91.26689453 85.928125 -90.81894531 85.309375 -90.35742188 84.671875 C-89.88884766 84.03765625 -89.42027344 83.4034375 -88.9375 82.75 C-88.22883789 81.77546875 -88.22883789 81.77546875 -87.50585938 80.78125 C-86.34276471 79.18346338 -85.17211399 77.59118197 -84 76 C-80.60189863 77.24479061 -77.90187994 78.66442871 -75 80.8125 C-66.93566452 86.29624812 -57.7708529 89.73412645 -48 90 C-47.07703125 90.061875 -46.1540625 90.12375 -45.203125 90.1875 C-36.21312286 90.56014258 -28.33567118 88.83486192 -20.75 83.875 C-18.16172645 79.62283632 -18.01840455 75.84413364 -19 71 C-23.35620911 64.79570218 -30.25423989 62.93820388 -37.37109375 61.45703125 C-40.4464986 60.92237692 -43.52941244 60.5263445 -46.625 60.125 C-60.63445737 58.16035118 -75.59795178 54.94717008 -85.49609375 44.0234375 C-91.77438008 35.57628861 -93.11682741 27.36516222 -92 17 C-90.5566422 9.31060711 -85.53161477 2.86591103 -79.5546875 -1.984375 C-56.595545 -17.64746347 -22.58149656 -15.29597359 0 0 Z " fill="#46A365" transform="translate(1121,433)"/>
<path d="M0 0 C1.97226562 -0.00290039 1.97226562 -0.00290039 3.984375 -0.00585938 C5.0043457 0.01287231 5.0043457 0.01287231 6.04492188 0.03198242 C8.11987007 0.06632135 10.19055909 0.05262614 12.265625 0.03320312 C23.51871222 0.11594641 23.51871222 0.11594641 28.125 4.62890625 C29.4558911 7.29068846 29.23768993 9.31630021 29.22265625 12.29296875 C29.21782227 13.97519531 29.21782227 13.97519531 29.21289062 15.69140625 C29.20032227 17.45484375 29.20032227 17.45484375 29.1875 19.25390625 C29.18298828 20.43726563 29.17847656 21.620625 29.17382812 22.83984375 C29.16201467 25.76958132 29.14554258 28.69921897 29.125 31.62890625 C29.82061035 31.60795898 30.5162207 31.58701172 31.23291016 31.56542969 C34.40512458 31.48193645 37.57710731 31.43014096 40.75 31.37890625 C42.39162109 31.32863281 42.39162109 31.32863281 44.06640625 31.27734375 C50.43203343 31.20018463 54.30829427 31.3082732 59.125 35.62890625 C62.46941442 38.97332067 61.45485739 43.32168662 61.49609375 47.86914062 C61.49593262 48.53776123 61.49577148 49.20638184 61.49560547 49.89526367 C61.49996236 51.9238788 61.53622495 53.95028811 61.57421875 55.97851562 C61.57808594 57.26177734 61.58195312 58.54503906 61.5859375 59.8671875 C61.59415527 61.04321533 61.60237305 62.21924316 61.61083984 63.4309082 C61.0266317 67.2764069 59.86446597 68.91329674 57.125 71.62890625 C53.94712459 72.68819805 51.69911057 72.74349564 48.36328125 72.7265625 C47.24501953 72.72333984 46.12675781 72.72011719 44.97460938 72.71679688 C43.80736328 72.70841797 42.64011719 72.70003906 41.4375 72.69140625 C40.25865234 72.68689453 39.07980469 72.68238281 37.86523438 72.67773438 C34.95177211 72.66593898 32.03841137 72.64947895 29.125 72.62890625 C29.15118408 73.35480957 29.17736816 74.08071289 29.2043457 74.82861328 C29.3086681 78.13682166 29.37343872 81.44468345 29.4375 84.75390625 C29.47939453 85.89601563 29.52128906 87.038125 29.56445312 88.21484375 C29.7025945 97.71897008 29.7025945 97.71897008 26.73046875 101.37109375 C21.30627885 106.07151618 15.22196934 104.92831782 8.3125 105.00390625 C6.38567383 105.05998047 6.38567383 105.05998047 4.41992188 105.1171875 C3.18177734 105.12878906 1.94363281 105.14039063 0.66796875 105.15234375 C-0.46616455 105.17216309 -1.60029785 105.19198242 -2.76879883 105.21240234 C-6.80651268 104.45392273 -8.25746381 102.7037175 -10.875 99.62890625 C-11.205 99.29890625 -11.535 98.96890625 -11.875 98.62890625 C-11.96248207 96.70223118 -11.98197334 94.77238764 -11.97265625 92.84375 C-11.96943359 91.67392578 -11.96621094 90.50410156 -11.96289062 89.29882812 C-11.95032227 87.4512793 -11.95032227 87.4512793 -11.9375 85.56640625 C-11.93298828 84.33083984 -11.92847656 83.09527344 -11.92382812 81.82226562 C-11.91199608 78.75776508 -11.89551173 75.69335904 -11.875 72.62890625 C-12.60090332 72.64985352 -13.32680664 72.67080078 -14.07470703 72.69238281 C-17.38299555 72.77584275 -20.69106211 72.82766164 -24 72.87890625 C-25.14210938 72.91242188 -26.28421875 72.9459375 -27.4609375 72.98046875 C-38.09393882 73.1041083 -38.09393882 73.1041083 -42.875 68.62890625 C-46.24188459 63.57857936 -45.28577901 57.68596706 -45.3125 51.75390625 C-45.36180664 49.83384766 -45.36180664 49.83384766 -45.41210938 47.875 C-45.41919922 46.64136719 -45.42628906 45.40773438 -45.43359375 44.13671875 C-45.44704834 43.0089502 -45.46050293 41.88118164 -45.47436523 40.71923828 C-44.66897315 36.56663012 -43.25385329 35.12192107 -39.875 32.62890625 C-36.73706055 32.0612793 -36.73706055 32.0612793 -33.26171875 32.140625 C-32.01455078 32.15673828 -30.76738281 32.17285156 -29.48242188 32.18945312 C-28.18884766 32.23134766 -26.89527344 32.27324219 -25.5625 32.31640625 C-24.24958984 32.33896484 -22.93667969 32.36152344 -21.58398438 32.38476562 C-18.3464987 32.443629 -15.11133 32.52581821 -11.875 32.62890625 C-11.90118408 31.83718018 -11.92736816 31.0454541 -11.9543457 30.22973633 C-12.05844122 26.63382908 -12.123369 23.03823894 -12.1875 19.44140625 C-12.22939453 18.19552734 -12.27128906 16.94964844 -12.31445312 15.66601562 C-12.33056641 14.46396484 -12.34667969 13.26191406 -12.36328125 12.0234375 C-12.38946533 10.91846924 -12.41564941 9.81350098 -12.44262695 8.67504883 C-11.13706686 1.66882376 -6.55562605 -0.0039651 0 0 Z " fill="#3ABACB" transform="translate(372.875,449.37109375)"/>
<path d="M0 0 C6.15222436 0.43173504 9.81917949 1.65405342 15 5 C13.48575309 9.74922894 11.86249275 14.40020458 9.9375 19 C6.64307782 27.16061067 5.53651954 35.24962178 5 44 C4.94585937 44.72832031 4.89171875 45.45664062 4.8359375 46.20703125 C4.51431318 54.08682718 6.13986524 62.53068292 9.1640625 69.796875 C9.43992188 70.52390625 9.71578125 71.2509375 10 72 C9.67 72.66 9.34 73.32 9 74 C9.66 74.33 10.32 74.66 11 75 C11.625 77.0625 11.625 77.0625 12 79 C11.97679687 77.90042969 11.95359375 76.80085938 11.9296875 75.66796875 C11.59562834 53.49698998 11.59562834 53.49698998 16.53515625 48.3671875 C20.17326229 44.23785483 19.74276233 39.57790531 19.75 34.3125 C19.78316575 32.43353275 19.81948463 30.55461777 19.859375 28.67578125 C19.86662598 27.4369519 19.86662598 27.4369519 19.87402344 26.1730957 C20 24 20 24 21 21 C20.34 20.67 19.68 20.34 19 20 C19.33 19.34 19.66 18.68 20 18 C20.66 18 21.32 18 22 18 C22.0825 17.4225 22.165 16.845 22.25 16.25 C23.28140881 13.15577356 24.3946057 11.99501104 27 10 C29.8264092 9.39264168 32.61609153 9.34922209 35.5 9.3125 C41.81581002 9.17465644 41.81581002 9.17465644 48 8 C46 11 46 11 44.07641602 11.4765625 C43.30998779 11.52554687 42.54355957 11.57453125 41.75390625 11.625 C40.91666016 11.69203125 40.07941406 11.7590625 39.21679688 11.828125 C38.34087891 11.88484375 37.46496094 11.9415625 36.5625 12 C34.83377249 12.11243756 33.1057777 12.23695647 31.37890625 12.375 C30.6113501 12.42398437 29.84379395 12.47296875 29.05297852 12.5234375 C26.50319449 13.11532458 25.6013562 13.95584341 24 16 C22.79950593 19.10007201 22.79950593 19.10007201 22 22 C23.19367188 21.9278125 24.38734375 21.855625 25.6171875 21.78125 C36.87557554 21.15697728 48.10684607 20.9249798 59.38183594 20.95288086 C60.86739974 20.95481225 62.35296366 20.9566532 63.83852768 20.95841122 C78.95012717 20.98214289 94.06132819 21.0855498 109.17249274 21.19681758 C115.50061867 21.24340099 121.82876084 21.28674823 128.15692139 21.32835388 C129.09995849 21.33456412 130.04299559 21.34077437 131.01460958 21.3471728 C132.94052625 21.35984176 134.86644301 21.37249975 136.79235983 21.38514698 C149.44738352 21.46829269 162.10238542 21.5529047 174.75732422 21.64819336 C186.19753887 21.73390674 197.63778663 21.81160702 209.078125 21.87890625 C210.01741663 21.88444787 210.95670826 21.88998948 211.92446327 21.89569902 C254.95577324 22.14300764 297.97419939 21.66481457 341 21 C341.28746094 20.35675781 341.57492187 19.71351563 341.87109375 19.05078125 C343 17 343 17 345.0625 16.1875 C345.701875 16.125625 346.34125 16.06375 347 16 C348 17 348 17 348.0625 19.5625 C348.041875 20.366875 348.02125 21.17125 348 22 C348.99 22 349.98 22 351 22 C351 29.92 351 37.84 351 46 C350.67 46 350.34 46 350 46 C350 41.71 350 37.42 350 33 C241.43 33 132.86 33 21 33 C20.43213283 62.78097567 20.43213283 62.78097567 25.5625 92.5625 C25.82571045 93.35914063 26.0889209 94.15578125 26.36010742 94.9765625 C30.60952305 107.24362736 37.44137576 117.26813728 46 127 C47.02287109 128.20462891 47.02287109 128.20462891 48.06640625 129.43359375 C59.26904814 142.43391985 73.29356101 152.34797815 88 161 C89.66726601 161.99900042 91.33414447 162.99864934 93 164 C92.34 164.33 91.68 164.66 91 165 C89.34277344 164.33837891 89.34277344 164.33837891 87.359375 163.2265625 C86.62549561 162.81857422 85.89161621 162.41058594 85.13549805 161.99023438 C84.34828369 161.53970703 83.56106934 161.08917969 82.75 160.625 C81.94022705 160.16673828 81.1304541 159.70847656 80.29614258 159.23632812 C68.17652201 152.31560357 56.899693 144.71149706 46 136 C45.0409375 135.23558594 44.081875 134.47117187 43.09375 133.68359375 C36.87237198 128.65930673 30.84553954 123.45704155 25 118 C24.11441406 117.18015625 23.22882813 116.3603125 22.31640625 115.515625 C3.06156393 97.05282584 -11.3528473 73.14668133 -12.38623047 46.08935547 C-12.6261407 34.26520855 -11.73318587 19.0997788 -5 9 C-4.34 9 -3.68 9 -3 9 C-2.87625 8.2575 -2.7525 7.515 -2.625 6.75 C-2.04513299 4.19858515 -1.26291261 2.2732427 0 0 Z " fill="#29A7C6" transform="translate(192,385)"/>
<path d="M0 0 C0.99 0.495 0.99 0.495 2 1 C-8.52236235 7.7614503 -19.09240275 14.35949714 -30.03051758 20.43286133 C-30.78486084 20.85849365 -31.5392041 21.28412598 -32.31640625 21.72265625 C-32.98099854 22.09140869 -33.64559082 22.46016113 -34.33032227 22.84008789 C-36.30557074 24.06091688 -36.30557074 24.06091688 -38 27 C-35.77675074 28.1793149 -33.54753361 29.34340918 -31.3125 30.5 C-30.68666016 30.83386719 -30.06082031 31.16773438 -29.41601562 31.51171875 C-25.76724496 33.38386286 -23.10030027 34.40213102 -19 34 C-18.01 34 -17.02 34 -16 34 C-16.33 34.99 -16.66 35.98 -17 37 C-7.46838336 40.62995657 1.97005301 43.39740709 11.9375 45.625 C13.17951172 45.91117188 14.42152344 46.19734375 15.70117188 46.4921875 C19.46282409 47.35110134 23.22896339 48.18330537 27 49 C27.66767395 49.14465698 28.3353479 49.28931396 29.02325439 49.43835449 C31.03606291 49.87047203 33.05072104 50.2924636 35.06640625 50.7109375 C36.84640015 51.0829126 36.84640015 51.0829126 38.66235352 51.46240234 C41.84395659 51.97486595 44.78467693 52.10092805 48 52 C43.99283723 56.26644978 39.62975802 59.66204955 34.875 63.0625 C33.68801514 63.9134021 33.68801514 63.9134021 32.47705078 64.78149414 C13.87560128 77.97997975 -5.96560129 89.8976854 -26.1875 100.4375 C-27.21230469 100.97246094 -28.23710937 101.50742187 -29.29296875 102.05859375 C-33.83499918 103.63814546 -36.23764709 102.35780443 -40.50390625 100.35546875 C-41.86134644 99.6414444 -43.21393815 98.9181542 -44.5625 98.1875 C-45.67189941 97.59134888 -45.67189941 97.59134888 -46.80371094 96.9831543 C-68.09654274 85.41067343 -88.17582172 71.90267048 -108 58 C-106.44548995 54.8909799 -103.87969004 54.43428115 -100.73828125 53.05078125 C-99.39308931 52.45187285 -98.04795865 51.85282681 -96.70288086 51.25366211 C-95.98808563 50.93799286 -95.27329041 50.62232361 -94.53683472 50.29708862 C-68.86709701 38.93453086 -44.0506193 26.51567698 -20 12 C-18.45366585 11.07591727 -16.9068274 10.15267765 -15.359375 9.23046875 C-8.74293297 5.29866969 -8.74293297 5.29866969 -2.23046875 1.19921875 C-1.12638672 0.60560547 -1.12638672 0.60560547 0 0 Z " fill="#1970B4" transform="translate(418,571)"/>
<path d="M0 0 C4.67821711 3.58186637 7.87785796 7.18801578 11.0625 12.125 C11.49151611 12.78153564 11.92053223 13.43807129 12.36254883 14.11450195 C21.51461706 28.3960377 21.51461706 28.3960377 20.609375 32.9765625 C20.40828125 33.64429688 20.2071875 34.31203125 20 35 C19.98093809 36.7291871 20.00513805 38.45915947 20.0625 40.1875 C20.11018192 44.66960069 19.60903399 48.55449929 18.5 52.8828125 C18.0102034 54.95679497 17.76043163 56.9429821 17.5625 59.0625 C17.04282857 62.70019999 16.22544739 65.48793142 14.859375 68.8515625 C14.28476283 70.28809293 13.75333285 71.74262558 13.265625 73.2109375 C3.95889992 101.04331345 -13.05421236 127.20912321 -33.37890625 148.23828125 C-36.06432958 151.06778094 -38.52314535 153.98817845 -41 157 C-43.1875 159.375 -43.1875 159.375 -45 161 C-45.66 161 -46.32 161 -47 161 C-47 161.66 -47 162.32 -47 163 C-48.36328125 164.375 -48.36328125 164.375 -50.3125 166 C-53.71647448 168.88858397 -57.03082398 171.84793678 -60.3125 174.875 C-89.34655771 201.28765168 -122.7839828 222.9504951 -157 242 C-158.03060547 242.60521484 -158.03060547 242.60521484 -159.08203125 243.22265625 C-162.25202036 244.50743799 -164.61105482 244.58371051 -167.80322266 243.2421875 C-169.84019369 242.21434416 -171.82737327 241.12458854 -173.8125 240 C-174.85180664 239.42765625 -174.85180664 239.42765625 -175.91210938 238.84375 C-177.61326428 237.90518177 -179.30736053 236.9538396 -181 236 C-177.57036759 230.75190865 -173.15791697 228.61052248 -167.75 225.8125 C-160.96951453 222.19322036 -154.28279373 218.48941963 -147.75 214.4375 C-147.06518555 214.02024658 -146.38037109 213.60299316 -145.67480469 213.1730957 C-144.07900537 212.17292039 -142.53296128 211.09405477 -141 210 C-141 209.34 -141 208.68 -141 208 C-138.59079052 206.37370803 -136.18146968 204.86100654 -133.6875 203.375 C-127.85557728 199.8176681 -122.23183428 196.13304616 -116.75390625 192.04296875 C-114.22144381 190.16427676 -111.65170999 188.34906463 -109.06689453 186.54345703 C-101.0464587 180.91598174 -93.43460282 174.84944174 -85.90673828 168.58203125 C-84.17577446 167.14584104 -82.43182499 165.72755881 -80.68359375 164.3125 C-72.69669882 157.75291173 -65.36629928 150.54990392 -58.0625 143.25 C-57.5656369 142.75413391 -57.0687738 142.25826782 -56.55685425 141.74737549 C-25.65452837 110.83801691 3.29417775 68.31187848 3.31347656 22.95483398 C3.16416216 15.11831666 1.74408432 7.61998746 0 0 Z " fill="#55B982" transform="translate(560,362)"/>
<path d="M0 0 C3.23543129 3.06630647 5.84682658 6.36013784 8.5 9.9375 C13.88081561 17.06347247 19.8271005 23.55861629 26 30 C26.71027344 30.75152344 27.42054688 31.50304687 28.15234375 32.27734375 C43.36968848 47.99259751 62.20767908 60.0367045 81 71 C81.67144043 71.39203613 82.34288086 71.78407227 83.03466797 72.18798828 C111.46388426 88.66193899 141.52060817 100.89433192 172.98730469 110.18432617 C174.14004883 110.5269751 175.29279297 110.86962402 176.48046875 111.22265625 C177.50035889 111.51922119 178.52024902 111.81578613 179.57104492 112.12133789 C182 113 182 113 184 115 C182.65035156 115.67482422 182.65035156 115.67482422 181.2734375 116.36328125 C180.66580566 116.66717773 180.05817383 116.97107422 179.43212891 117.28417969 C178.025812 117.98717124 176.61922378 118.68962022 175.21240234 119.39160156 C171.11962459 121.43493678 167.03242331 123.48846708 162.953125 125.55859375 C152.65682738 130.77171548 142.29947455 135.86062076 131.875 140.8125 C130.75432129 141.35874023 129.63364258 141.90498047 128.47900391 142.46777344 C127.43147949 142.95922852 126.38395508 143.45068359 125.3046875 143.95703125 C124.37640137 144.40022705 123.44811523 144.84342285 122.49169922 145.30004883 C120 146 120 146 117.84643555 145.25683594 C115.13448724 143.41086081 112.52031425 141.4578347 109.9375 139.4375 C109.07922607 138.77041016 109.07922607 138.77041016 108.20361328 138.08984375 C99.79890997 131.53189292 91.63410978 124.79107498 83.80078125 117.5546875 C81.6805 115.62070712 79.53745894 113.74532038 77.359375 111.87890625 C72.49363117 107.63377255 67.93528417 103.08577353 63.3815918 98.51196289 C61.93974779 97.06475615 60.49262884 95.62297974 59.04492188 94.18164062 C53.8184129 88.95949542 48.75852906 83.65376608 44 78 C43.52667236 77.44401123 43.05334473 76.88802246 42.56567383 76.31518555 C23.97832883 54.26713368 6.46012352 28.48606846 0 0 Z " fill="#1A85CA" transform="translate(184,477)"/>
<path d="M0 0 C1.02802734 -0.00322266 2.05605469 -0.00644531 3.11523438 -0.00976562 C13.71575652 0.06483818 24.05620104 2.03345764 32.12109375 9.4296875 C38.96251048 16.88620408 41.94699596 23.35095252 41.92602539 33.47973633 C41.92591209 35.31106865 41.92591209 35.31106865 41.92579651 37.17939758 C41.92063522 38.48789169 41.91547394 39.7963858 41.91015625 41.14453125 C41.90828961 42.50501961 41.90686687 43.86550865 41.90586853 45.22599792 C41.90206275 48.79505287 41.89224914 52.36406669 41.88116455 55.93310547 C41.87090863 59.57974695 41.86636197 63.22639511 41.86132812 66.87304688 C41.85062503 74.01954962 41.83304404 81.16601778 41.8125 88.3125 C34.5525 88.3125 27.2925 88.3125 19.8125 88.3125 C19.3175 83.8575 19.3175 83.8575 18.8125 79.3125 C18.13767578 80.00085938 18.13767578 80.00085938 17.44921875 80.703125 C8.36336589 89.37019105 -0.70936208 90.90208345 -12.90209961 90.78759766 C-19.31299105 90.56818358 -24.62358477 89.67955187 -30.1875 86.3125 C-30.8371875 85.95027344 -31.486875 85.58804688 -32.15625 85.21484375 C-37.77206538 81.70495914 -41.11302397 76.53592808 -43.1875 70.3125 C-44.46292718 53.93237098 -44.46292718 53.93237098 -39.73046875 47.9140625 C-39.22128906 47.38554687 -38.71210937 46.85703125 -38.1875 46.3125 C-37.66800781 45.76335937 -37.14851562 45.21421875 -36.61328125 44.6484375 C-28.1592639 36.64766583 -18.44078251 35.11702012 -7.25 35.125 C-6.32227783 35.12435547 -5.39455566 35.12371094 -4.4387207 35.12304688 C3.12810204 35.18066394 10.36630109 35.91086256 17.8125 37.3125 C17.46991741 29.71206303 17.46991741 29.71206303 13.8125 23.3125 C7.26379375 18.93710066 0.4854367 18.38550645 -7.1875 19.3125 C-15.89646351 21.18007086 -15.89646351 21.18007086 -23.84765625 25.01171875 C-26.1875 26.3125 -26.1875 26.3125 -28.265625 26.33203125 C-31.12341094 24.81601066 -32.24669337 22.72769018 -33.9375 20 C-34.55109375 19.03449219 -35.1646875 18.06898438 -35.796875 17.07421875 C-37.1875 14.3125 -37.1875 14.3125 -37.1875 10.3125 C-35.0896938 9.19469086 -32.98535439 8.09368731 -30.875 7 C-30.29943359 6.69126953 -29.72386719 6.38253906 -29.13085938 6.06445312 C-19.70670372 1.22502185 -10.50902855 -0.16659842 0 0 Z " fill="#1C7AB2" transform="translate(920.1875,453.6875)"/>
<path d="M0 0 C10.87114803 5.65352534 17.72428336 13.39290244 22.375 24.6875 C24.07532541 31.64337667 26.3924866 42.8400268 23.0625 49.5 C1.9425 49.5 -19.1775 49.5 -40.9375 49.5 C-37.03568713 59.74894938 -37.03568713 59.74894938 -28.9375 65.5 C-21.02116839 68.72350624 -11.37995312 68.36479718 -3.578125 65.08984375 C-1.52648813 64.03149936 0.50406576 62.93057605 2.50390625 61.77734375 C5.0625 60.5 5.0625 60.5 9.0625 60.5 C11.1328125 62.29296875 11.1328125 62.29296875 13.1875 64.6875 C13.87070312 65.46480469 14.55390625 66.24210938 15.2578125 67.04296875 C17.04149519 69.47140254 18.08496506 71.66313314 19.0625 74.5 C13.38195771 80.05143906 7.52527564 82.87279837 0.0625 85.5 C-0.98421875 85.86867188 -2.0309375 86.23734375 -3.109375 86.6171875 C-14.83587282 89.32146149 -30.28560564 89.492802 -40.9375 83.5 C-41.86433594 83.01402344 -42.79117188 82.52804687 -43.74609375 82.02734375 C-54.77070304 75.69978645 -61.00630774 66.75305208 -64.46362305 54.65966797 C-67.35946523 41.46202761 -65.58052882 27.6401171 -58.55078125 16.25390625 C-45.841931 -2.16522192 -20.61480099 -8.35918853 0 0 Z " fill="#1A79BD" transform="translate(842.9375,456.5)"/>
<path d="M0 0 C0 7.92 0 15.84 0 24 C7.92 24 15.84 24 24 24 C24 30.27 24 36.54 24 43 C16.08 43 8.16 43 0 43 C0.05111827 48.73035829 0.11414615 54.45803206 0.20751953 60.1875 C0.23568321 62.13500245 0.2569206 64.08261822 0.27099609 66.03027344 C0.29248946 68.83587468 0.33917198 71.64012 0.390625 74.4453125 C0.39185364 75.31116974 0.39308228 76.17702698 0.39434814 77.06912231 C0.53847684 83.06562696 1.65736563 86.65736563 6 91 C7.99990516 91.19989763 7.99990516 91.19989763 10.3125 91.1875 C11.09238281 91.20167969 11.87226562 91.21585938 12.67578125 91.23046875 C15.21931216 90.97825308 16.7553508 90.1709201 19 89 C19.99 89 20.98 89 22 89 C23.17713663 91.0780065 24.34171974 93.16151783 25.5 95.25 C25.83386719 95.83652344 26.16773438 96.42304687 26.51171875 97.02734375 C28.36076806 100.38582107 29 102.06645784 29 106 C27.25197854 106.81674796 25.50149811 107.62823451 23.75 108.4375 C22.77546875 108.88996094 21.8009375 109.34242188 20.796875 109.80859375 C12.85631758 113.19109377 2.52451615 113.31536099 -5.87109375 111.31640625 C-8.10056221 110.38520712 -9.99741072 109.34773414 -12 108 C-12.63164063 107.59910156 -13.26328125 107.19820312 -13.9140625 106.78515625 C-19.37728161 102.77492095 -21.86303579 97.30600629 -24 91 C-24.59567899 87.11358079 -24.59025163 83.35013886 -24.48828125 79.42578125 C-24.48120651 78.37593552 -24.47413177 77.32608978 -24.46684265 76.24443054 C-24.43913787 72.93302258 -24.37644466 69.62338581 -24.3125 66.3125 C-24.28738624 64.05015485 -24.26457851 61.78778285 -24.24414062 59.52539062 C-24.18938966 54.01625788 -24.10328501 48.50842786 -24 43 C-28.95 43 -33.9 43 -39 43 C-39 36.73 -39 30.46 -39 24 C-34.05 24 -29.1 24 -24 24 C-24 16.74 -24 9.48 -24 2 C-15.67654856 0.69436056 -8.52033803 0 0 0 Z " fill="#67B14A" transform="translate(1326,432)"/>
<path d="M0 0 C7.92 0 15.84 0 24 0 C24 39.27 24 78.54 24 119 C16.08 119 8.16 119 0 119 C0 79.73 0 40.46 0 0 Z " fill="#4FAB58" transform="translate(1147,423)"/>
<path d="M0 0 C7.92 0 15.84 0 24 0 C24 39.27 24 78.54 24 119 C16.08 119 8.16 119 0 119 C0 79.73 0 40.46 0 0 Z " fill="#1C83AC" transform="translate(982,423)"/>
<path d="M0 0 C6.15222436 0.43173504 9.81917949 1.65405342 15 5 C13.48575309 9.74922894 11.86249275 14.40020458 9.9375 19 C6.64307782 27.16061067 5.53651954 35.24962178 5 44 C4.94585937 44.72832031 4.89171875 45.45664062 4.8359375 46.20703125 C4.51431318 54.08682718 6.13986524 62.53068292 9.1640625 69.796875 C9.43992188 70.52390625 9.71578125 71.2509375 10 72 C9.67 72.66 9.34 73.32 9 74 C9.66 74.33 10.32 74.66 11 75 C11.625 77.0625 11.625 77.0625 12 79 C11.97679687 77.90042969 11.95359375 76.80085938 11.9296875 75.66796875 C11.59860059 53.694253 11.59860059 53.694253 16.5625 48.125 C20.34253886 43.27879634 19.90229379 37.98672579 20 32 C21.32 31.67 22.64 31.34 24 31 C24 31.66 24 32.32 24 33 C23.01 33 22.02 33 21 33 C21.12021393 37.7099895 21.24453497 42.41984833 21.37231445 47.12963867 C21.41505117 48.72466244 21.45675454 50.31971431 21.49731445 51.91479492 C21.50220912 72.53688958 21.50220912 72.53688958 25.5625 92.5625 C25.82571045 93.35914063 26.0889209 94.15578125 26.36010742 94.9765625 C30.60952305 107.24362736 37.44137576 117.26813728 46 127 C47.02287109 128.20462891 47.02287109 128.20462891 48.06640625 129.43359375 C59.26904814 142.43391985 73.29356101 152.34797815 88 161 C89.66726601 161.99900042 91.33414447 162.99864934 93 164 C92.34 164.33 91.68 164.66 91 165 C89.34277344 164.33837891 89.34277344 164.33837891 87.359375 163.2265625 C86.62549561 162.81857422 85.89161621 162.41058594 85.13549805 161.99023438 C84.34828369 161.53970703 83.56106934 161.08917969 82.75 160.625 C81.94022705 160.16673828 81.1304541 159.70847656 80.29614258 159.23632812 C68.17652201 152.31560357 56.899693 144.71149706 46 136 C45.0409375 135.23558594 44.081875 134.47117187 43.09375 133.68359375 C36.87237198 128.65930673 30.84553954 123.45704155 25 118 C24.11441406 117.18015625 23.22882813 116.3603125 22.31640625 115.515625 C3.06156393 97.05282584 -11.3528473 73.14668133 -12.38623047 46.08935547 C-12.6261407 34.26520855 -11.73318587 19.0997788 -5 9 C-4.34 9 -3.68 9 -3 9 C-2.87625 8.2575 -2.7525 7.515 -2.625 6.75 C-2.04513299 4.19858515 -1.26291261 2.2732427 0 0 Z " fill="#1F94D8" transform="translate(192,385)"/>
<path d="M0 0 C6.26027652 3.09281123 10.66317795 8.43592341 12.9296875 15.0546875 C14.41834858 23.82658288 14.23662026 32.60964395 9.29296875 40.1953125 C5.09507442 45.44268041 0.07225969 48.69174614 -6.609375 49.58203125 C-13.13552667 49.82069253 -18.45096934 49.25321836 -23.70703125 45.1953125 C-29.75075761 39.46274829 -32.89968247 34.64072413 -33.13842773 26.11645508 C-33.17507679 12.70436838 -33.17507679 12.70436838 -27.70703125 7.1953125 C-19.6894791 -0.73275804 -11.29599498 -3.35782823 0 0 Z " fill="#FCFDFB" transform="translate(1243.70703125,474.8046875)"/>
<path d="M0 0 C4.56548395 4.42648795 6.82262389 7.62582268 7.16113281 14.06518555 C7.19859838 17.25171884 7.2311196 20.43800113 7.24023438 23.62475586 C7.24988719 25.66367223 7.28091172 27.70155648 7.3125 29.74023438 C7.34676897 38.42313393 7.24236029 45.98971227 1.625 52.9375 C-2.90286556 56.49510866 -6.87479033 57.59579059 -12.58984375 57.43359375 C-17.16793455 56.6099826 -20.84968558 54.37920916 -24 51 C-28.62087127 44.10612724 -28.65171069 36.60540941 -28.57641602 28.57080078 C-28.56251748 26.50260155 -28.59674518 24.43891514 -28.63476562 22.37109375 C-28.68005993 14.51031691 -28.0060468 8.30555157 -23 2 C-16.52529755 -4.31678288 -7.55436006 -5.09098178 0 0 Z " fill="#33BAD9" transform="translate(309,317)"/>
<path d="M0 0 C3.45478708 2.9415482 5.34469768 6.2489368 6.76171875 10.5 C7.01267219 14.66236567 7.03261257 18.82501654 7.05688477 22.99438477 C7.0683366 24.36070162 7.08867952 25.72697618 7.1184082 27.09301758 C7.31056309 35.93321568 7.48260023 45.17152646 1.27832031 52.17431641 C-3.20957437 56.11961157 -7.20356181 56.85597038 -12.95703125 56.78125 C-17.60009731 56.2088172 -20.32896161 53.46128076 -23.42578125 50.1875 C-28.47561234 42.69981942 -28.76801074 35.95384952 -28.73925781 27.16674805 C-28.73828476 25.07005635 -28.77999066 22.97702493 -28.82421875 20.88085938 C-28.8916856 13.27735087 -28.56783923 7.28962842 -23.23828125 1.5 C-16.25410056 -5.14348895 -7.82481152 -5.41126455 0 0 Z " fill="#3CA059" transform="translate(480.23828125,317.5)"/>
<path d="M0 0 C0.33 10.56 0.66 21.12 1 32 C-1.87436167 29.12563833 -1.96762555 26.99972292 -2.09765625 22.984375 C-2.08605469 21.91703125 -2.07445312 20.8496875 -2.0625 19.75 C-2.05347656 18.67234375 -2.04445313 17.5946875 -2.03515625 16.484375 C-2.02355469 15.66453125 -2.01195312 14.8446875 -2 14 C-27.20004796 19.56364695 -49.78867106 31.50547953 -64.53125 53.5546875 C-65.0159375 54.36164063 -65.500625 55.16859375 -66 56 C-70.1521562 55.38938879 -73.26764117 53.86617941 -77 52 C-79.73572585 51.30092586 -79.73572585 51.30092586 -82 51 C-82.99 53.97 -83.98 56.94 -85 60 C-85.66 60 -86.32 60 -87 60 C-83.63036108 48.76787027 -76.7191202 38.70754413 -69 30 C-68.44828125 29.37738281 -67.8965625 28.75476563 -67.328125 28.11328125 C-50.09725791 9.85676731 -24.74446414 0 0 0 Z " fill="#4DD2ED" transform="translate(274,334)"/>
<path d="M0 0 C5.90774004 -0.37509461 10.28517648 0.80918141 15.75 3 C16.54059814 3.31614258 17.33119629 3.63228516 18.14575195 3.95800781 C30.80986165 9.23224007 38.70743791 16.24656381 44.27734375 28.90234375 C49.34735576 42.05550659 49.26855858 56.38719637 46 70 C45.731875 71.16144531 45.46375 72.32289063 45.1875 73.51953125 C42.96831777 82.49797268 39.87553175 90.61593298 36 99 C35.03704741 95.78654086 34.90869157 92.95199742 34.97265625 89.60546875 C34.98490234 88.56712891 34.99714844 87.52878906 35.00976562 86.45898438 C35.0447341 84.28964368 35.08375255 82.12036424 35.12695312 79.95117188 C35.19581759 73.40094565 35.16505514 67.7637548 31.8203125 61.94921875 C30.59625749 59.0406309 31.28240512 56.87424023 31.875 53.8125 C34.2469794 39.92169252 32.22656213 29.69257561 24 18 C21.60416349 15.18668622 21.60416349 15.18668622 19 13 C18.13375 12.195625 17.2675 11.39125 16.375 10.5625 C12.73510582 7.55148806 8.56925539 5.49555709 4.390625 3.33203125 C2 2 2 2 0 0 Z " fill="#7AB034" transform="translate(507,336)"/>
<path d="M0 0 C0.33 0 0.66 0 1 0 C1.22042969 1.16015625 1.22042969 1.16015625 1.4453125 2.34375 C3.17557951 10.37855311 5.34649109 16.53369914 12.09765625 21.5625 C16.27829637 24.23325376 19.66087322 26.06608732 24.625 26.5625 C25.85089844 26.68818359 25.85089844 26.68818359 27.1015625 26.81640625 C28.04128906 26.90728516 28.04128906 26.90728516 29 27 C29 27.33 29 27.66 29 28 C28.29875 28.15855469 27.5975 28.31710937 26.875 28.48046875 C17.73745 30.7276108 10.79332358 33.73379677 5.25390625 41.59765625 C2.89588376 46.1153629 1.94540377 51.02419071 1 56 C0.67 56 0.34 56 0 56 C-0.22042969 54.83984375 -0.22042969 54.83984375 -0.4453125 53.65625 C-2.43869105 44.39964156 -5.81926542 37.35254666 -13.85546875 31.96484375 C-18.30444409 29.96321004 -23.18886904 29.52930341 -28 29 C-28 28.34 -28 27.68 -28 27 C-27.13117187 26.82984375 -26.26234375 26.6596875 -25.3671875 26.484375 C-15.81874794 24.47642574 -9.82364335 22.18457985 -4 14 C-1.82353578 9.48451406 -0.6225147 4.9801176 0 0 Z " fill="#36C5EA" transform="translate(585,291)"/>
<path d="M0 0 C4.45609041 4.11331422 5.84738656 6.0968761 6.16113281 12.06518555 C6.19859838 15.25171884 6.2311196 18.43800113 6.24023438 21.62475586 C6.24988719 23.66367223 6.28091172 25.70155648 6.3125 27.74023438 C6.34676897 36.42313393 6.24236029 43.98971227 0.625 50.9375 C-3.90885612 54.49981552 -7.86637042 55.56801265 -13.58203125 55.453125 C-18.06892893 54.61228472 -21.68092905 52.05943961 -25 49 C-26.92362535 45.86430977 -27.20382565 43.66886178 -27 40 C-26.67 40.66 -26.34 41.32 -26 42 C-18.89767767 42.38427283 -18.89767767 42.38427283 -12 41 C-6.28819296 35.28819296 -6.62831268 27.76896085 -6.50390625 20.171875 C-5.89621605 16.34672431 -4.69386356 15.63720486 -2 13 C-1.09179635 9.74641317 -1.09179635 9.74641317 -0.75 6.25 C-0.60046875 5.07953125 -0.4509375 3.9090625 -0.296875 2.703125 C-0.19890625 1.81109375 -0.1009375 0.9190625 0 0 Z " fill="#1C81BA" transform="translate(310,319)"/>
<path d="M0 0 C1.1914563 0.00193359 1.1914563 0.00193359 2.40698242 0.00390625 C3.65572144 0.02324219 3.65572144 0.02324219 4.9296875 0.04296875 C6.20259644 0.05263672 6.20259644 0.05263672 7.5012207 0.0625 C13.32045794 0.13382647 19.0303905 0.4731839 24.8046875 1.23046875 C25.37059531 5.61400859 25.69384507 9.53272452 23.59765625 13.53515625 C18.88864482 19.38006505 13.07903321 22.37755411 5.703125 23.5703125 C-0.67218608 23.88780807 -6.91415076 22.17780194 -11.7578125 18.04296875 C-13.65935386 14.32256174 -14.16472629 11.32354919 -13.1953125 7.23046875 C-9.59438243 2.62928033 -5.89379361 -0.03404116 0 0 Z " fill="#F8FAFB" transform="translate(914.1953125,504.76953125)"/>
<path d="M0 0 C0.144375 1.134375 0.28875 2.26875 0.4375 3.4375 C0.61171478 6.80777201 0.61171478 6.80777201 2 8 C2.20429655 10.11884707 2.31393738 12.2472027 2.375 14.375 C2.42398437 15.53773438 2.47296875 16.70046875 2.5234375 17.8984375 C2 21 2 21 -0.3984375 22.83984375 C-1.25695312 23.22269531 -2.11546875 23.60554688 -3 24 C-3.66 24.391875 -4.32 24.78375 -5 25.1875 C-7 26 -7 26 -12 26 C-11.67 32.27 -11.34 38.54 -11 45 C-13.97 44.67 -16.94 44.34 -20 44 C-20.33 44.99 -20.66 45.98 -21 47 C-22.71699138 41.84902585 -22.30455271 36.36065785 -22.35009766 30.96850586 C-22.36659775 29.53995403 -22.39380954 28.11148273 -22.43212891 26.68334961 C-22.84240732 11.28720626 -22.84240732 11.28720626 -17 5 C-11.49044145 -0.2407996 -7.26669576 -0.1211116 0 0 Z " fill="#9AD865" transform="translate(474,314)"/>
<path d="M0 0 C5.32259471 2.31382826 8.52015683 4.96218851 11.41796875 9.984375 C12.2578125 12.14453125 12.2578125 12.14453125 13.2578125 18.14453125 C-0.6021875 18.14453125 -14.4621875 18.14453125 -28.7421875 18.14453125 C-27.73445206 11.09038317 -27.12829574 7.89495746 -21.640625 3.4375 C-14.53205707 -1.38052937 -8.25244468 -2.57448061 0 0 Z " fill="#F6F9FB" transform="translate(830.7421875,472.85546875)"/>
<path d="M0 0 C108.57 0 217.14 0 329 0 C330.16071429 20.89285714 330.16071429 20.89285714 325 27 C323.57276996 24.14553992 324.50577369 22.6633048 325.375 19.625 C327.01947537 13.42254951 327.67119674 7.39465643 328 1 C325.89505699 1.08708038 323.79097858 1.19525693 321.6875 1.3125 C320.51574219 1.37050781 319.34398437 1.42851562 318.13671875 1.48828125 C314.9016314 2.01604768 313.91315119 2.42380724 312 5 C312 4.01 312 3.02 312 2 C209.37 1.67 106.74 1.34 1 1 C1 12.22 1 23.44 1 35 C0.67 35 0.34 35 0 35 C0 23.45 0 11.9 0 0 Z " fill="#CDEAF3" transform="translate(213,418)"/>
<path d="M0 0 C3.8196208 1.64227662 5.44963926 3.52362769 7.21484375 7.36035156 C8.90909095 13.0563095 8.56909857 18.98434706 8.5 24.875 C8.51546875 26.18597656 8.5309375 27.49695313 8.546875 28.84765625 C8.51427456 36.9733158 8.16501102 45.29318778 2.51733398 51.67553711 C-1.97385778 55.61843008 -5.95627837 56.33987538 -11.70703125 56.29296875 C-15.20475473 55.84607052 -17.35865969 54.24513927 -20 52 C-20.33 51.34 -20.66 50.68 -21 50 C-20.35933594 50.02320313 -19.71867187 50.04640625 -19.05859375 50.0703125 C-13.65101412 50.1831383 -8.99858161 50.18687945 -4 48 C-2.8379367 45.687158 -2.8379367 45.687158 -2 43 C-1.73058594 42.23042969 -1.46117187 41.46085937 -1.18359375 40.66796875 C2.01082267 30.0477885 5.20769533 10.41539066 0 0 Z " fill="#2E8050" transform="translate(479,318)"/>
<path d="M0 0 C2.30787513 4.54581466 4.3865524 9.15965719 6 14 C10.31169547 16.29058822 15.25201982 17.02764676 20 18 C20 18.33 20 18.66 20 19 C19.43152344 19.14695312 18.86304688 19.29390625 18.27734375 19.4453125 C12.52469057 21.11636701 7.7083431 23.1258905 4 28 C2.62659337 31.26978305 1.71976698 34.53140864 1 38 C0.67 38 0.34 38 0 38 C-0.17015625 37.33613281 -0.3403125 36.67226563 -0.515625 35.98828125 C-2.480609 28.80959217 -2.480609 28.80959217 -7 23 C-10.53618731 21.13884879 -14.06142697 20.54956833 -18 20 C-18 19.34 -18 18.68 -18 18 C-17.33613281 17.82984375 -16.67226563 17.6596875 -15.98828125 17.484375 C-8.68893659 15.62218132 -8.68893659 15.62218132 -3 11 C-1.71582143 7.38759525 -0.79483556 3.74800509 0 0 Z " fill="#3FC7EC" transform="translate(540,265)"/>
<path d="M0 0 C0.66 0.33 1.32 0.66 2 1 C-0.3577501 3.3577501 -1.027875 3.29966991 -4.24609375 3.52734375 C-5.08333984 3.59759766 -5.92058594 3.66785156 -6.78320312 3.74023438 C-8.54856453 3.87143489 -10.31419566 3.99905661 -12.08007812 4.12304688 C-12.91861328 4.19458984 -13.75714844 4.26613281 -14.62109375 4.33984375 C-15.77242798 4.42286743 -15.77242798 4.42286743 -16.94702148 4.50756836 C-19.48767134 5.11697385 -20.39988458 5.96013069 -22 8 C-23.20049407 11.10007201 -23.20049407 11.10007201 -24 14 C-22.20949219 13.89171875 -22.20949219 13.89171875 -20.3828125 13.78125 C-9.15539799 13.15864224 2.04462194 12.92617295 13.28857422 12.95507812 C14.77053245 12.95710846 16.25249086 12.95901999 17.73444939 12.96082306 C35.08161237 12.98778567 52.428528 13.09431157 69.7753396 13.20192909 C74.44900736 13.23069986 79.12268216 13.25828338 83.7963562 13.28601074 C92.58547199 13.33832493 101.37458129 13.39165545 110.16368854 13.4453826 C120.19572026 13.50665579 130.22775895 13.56674805 140.25979829 13.62675762 C160.83987336 13.74988895 181.41993956 13.87444965 202 14 C202 14.33 202 14.66 202 15 C201.00201952 15.00238835 200.00403904 15.00477671 198.97581673 15.00723743 C174.72389025 15.06595943 150.4720637 15.1417967 126.22024727 15.23571491 C114.492381 15.28073383 102.76454551 15.32013431 91.03662109 15.34643555 C80.81787959 15.36936638 70.599235 15.40270899 60.38057029 15.44870156 C54.96685513 15.47270031 49.55323635 15.49138537 44.13946915 15.49761391 C39.04889858 15.50363481 33.95857483 15.52352525 28.8680954 15.55427551 C26.99516128 15.56310404 25.12219497 15.56676845 23.24924088 15.56500816 C20.70103738 15.56336872 18.15359838 15.57993943 15.60549927 15.60127258 C14.85648098 15.59642501 14.10746269 15.59157743 13.33574688 15.58658296 C11.06719082 15.58283416 11.06719082 15.58283416 8 16 C7.34 16.99 6.68 17.98 6 19 C2.375 19.1875 2.375 19.1875 -1 19 C-1.66 17.68 -2.32 16.36 -3 15 C-10.26 15 -17.52 15 -25 15 C-25 14.34 -25 13.68 -25 13 C-25.66 12.67 -26.32 12.34 -27 12 C-26.67 11.34 -26.34 10.68 -26 10 C-25.34 10 -24.68 10 -24 10 C-23.9175 9.4225 -23.835 8.845 -23.75 8.25 C-22.71687511 5.15062532 -21.61387067 3.9952273 -19 2 C-16.13166749 1.39415004 -13.29971732 1.34930433 -10.375 1.3125 C-5.02373399 1.41426788 -5.02373399 1.41426788 0 0 Z " fill="#3ABEDF" transform="translate(238,393)"/>
<path d="M0 0 C3.36839732 3.36839732 2.29743087 7.82402228 2.32226562 12.40039062 C2.31900269 13.42676636 2.31900269 13.42676636 2.31567383 14.47387695 C2.31254837 16.53066733 2.33584013 18.58596942 2.36132812 20.64257812 C2.36559001 29.34109482 2.25168205 36.97818273 -3.375 43.9375 C-8.04307423 47.60527261 -11.92420156 48.43962589 -17.7734375 48.33203125 C-21.33649789 47.80069768 -23.27272657 46.3076929 -26 44 C-26 43.67 -26 43.34 -26 43 C-21.05 42.34 -16.1 41.68 -11 41 C-11 40.34 -11 39.68 -11 39 C-10.34 39 -9.68 39 -9 39 C-8.731875 38.319375 -8.46375 37.63875 -8.1875 36.9375 C-7.31295707 34.77415695 -6.38872321 32.63073998 -5.4375 30.5 C-3.56731547 25.94650723 -2.91965641 21.75856721 -2.5625 16.875 C-2.08121041 11.16938951 -1.11801252 5.61177158 0 0 Z " fill="#1A5EA2" transform="translate(314,326)"/>
<path d="M0 0 C3.375 2.125 3.375 2.125 6 5 C6.72291858 9.04834405 6.35717177 11.20061557 4.6875 14.9375 C1.00740338 17.7617602 -1.80905531 17.70337434 -6.359375 17.484375 C-9 17 -9 17 -12.1875 14.875 C-14.36241887 11.42512869 -14.81586293 9.99772834 -14 6 C-10.37302314 0.0699618 -6.78597649 -1.86281708 0 0 Z " fill="#F8FCFC" transform="translate(387,381)"/>
<path d="M0 0 C0.56558212 16.81035737 0.56558212 16.81035737 -4.3125 22.875 C-10.79411765 28 -10.79411765 28 -15 28 C-15.33 26.68 -15.66 25.36 -16 24 C-15.01 24 -14.02 24 -13 24 C-13.33 23.01 -13.66 22.02 -14 21 C-14.07051114 18.26134713 -14.09357765 15.54972412 -14.0625 12.8125 C-14.05798828 12.06291016 -14.05347656 11.31332031 -14.04882812 10.54101562 C-14.03706354 8.69397617 -14.01912865 6.84697787 -14 5 C-13.39671875 4.80664062 -12.7934375 4.61328125 -12.171875 4.4140625 C-11.37265625 4.15367187 -10.5734375 3.89328125 -9.75 3.625 C-8.96109375 3.36976563 -8.1721875 3.11453125 -7.359375 2.8515625 C-5.08578238 2.03096119 -2.39414335 0 0 0 Z " fill="#55B55B" transform="translate(476,335)"/>
<path d="M0 0 C8.25 0 16.5 0 25 0 C25 15.84 25 31.68 25 48 C24.67 48 24.34 48 24 48 C24 32.49 24 16.98 24 1 C12.4746217 -0.31049978 12.4746217 -0.31049978 3 3 C2.88005142 4.49198172 2.82824533 5.98950297 2.80381775 7.48609924 C2.78561478 8.45510162 2.7674118 9.424104 2.74865723 10.42247009 C2.73355103 11.49420975 2.71844482 12.5659494 2.70288086 13.67016602 C2.68322769 14.79197266 2.66357452 15.9137793 2.64332581 17.06958008 C2.57917773 20.7976265 2.52200027 24.52574661 2.46484375 28.25390625 C2.42185955 30.83081262 2.37844315 33.40771181 2.33460999 35.98460388 C2.23186212 42.08668793 2.13349148 48.18882833 2.03721577 54.29101747 C1.92739187 61.23655973 1.81201528 68.18200623 1.69616115 75.12745011 C1.45790794 89.41820151 1.22666394 103.70906032 1 118 C0.67 118 0.34 118 0 118 C0 79.06 0 40.12 0 0 Z " fill="#3E9BD5" transform="translate(657,424)"/>
<path d="M0 0 C30.03 0 60.06 0 91 0 C92.16071429 20.89285714 92.16071429 20.89285714 87 27 C85.57276996 24.14553992 86.50577369 22.6633048 87.375 19.625 C89.01947537 13.42254951 89.67119674 7.39465643 90 1 C87.89505699 1.08708038 85.79097858 1.19525693 83.6875 1.3125 C82.51574219 1.37050781 81.34398437 1.42851562 80.13671875 1.48828125 C76.9016314 2.01604768 75.91315119 2.42380724 74 5 C74 4.01 74 3.02 74 2 C37.37 1.505 37.37 1.505 0 1 C0 0.67 0 0.34 0 0 Z " fill="#C6E4DF" transform="translate(451,418)"/>
<path d="M0 0 C7.92 0 15.84 0 24 0 C24 28.71 24 57.42 24 87 C23.67 87 23.34 87 23 87 C22.9845388 85.88937698 22.9845388 85.88937698 22.96876526 84.75631714 C22.86949503 77.66993439 22.7668356 70.58360992 22.66066074 63.4973278 C22.60622836 59.85696517 22.55296562 56.21659441 22.50268555 52.57617188 C22.2687426 35.70249794 21.91704811 18.85343141 21 2 C20.41725311 1.99589615 19.83450623 1.9917923 19.23410034 1.98756409 C18.4554361 1.98208054 17.67677185 1.97659698 16.87451172 1.97094727 C15.65776764 1.96262375 15.65776764 1.96262375 14.41644287 1.95413208 C12.72178229 1.94183165 11.02714205 1.92665388 9.33251953 1.90991211 C8.60661621 1.90741455 7.88071289 1.90491699 7.1328125 1.90234375 C6.38918457 1.89710693 5.64555664 1.89187012 4.87939453 1.88647461 C2.90867432 1.88213364 2.90867432 1.88213364 1 3 C0.67 2.01 0.34 1.02 0 0 Z " fill="#2794AF" transform="translate(982,423)"/>
<path d="M0 0 C4.646726 1.98169197 8.35821604 5.36203497 12.22265625 8.54296875 C15.51937282 11.16657382 16.6411521 12 21 12 C23.234375 13.6171875 23.234375 13.6171875 25.75 15.875 C32.65431225 21.75576191 40.23656423 26.34718115 48 31 C48.98226562 31.59039063 49.96453125 32.18078125 50.9765625 32.7890625 C51.64429688 33.18867187 52.31203125 33.58828125 53 34 C52.01 34.495 52.01 34.495 51 35 C49.34277344 34.33837891 49.34277344 34.33837891 47.359375 33.2265625 C46.62549561 32.81857422 45.89161621 32.41058594 45.13549805 31.99023438 C43.95467651 31.31444336 43.95467651 31.31444336 42.75 30.625 C41.94022705 30.16673828 41.1304541 29.70847656 40.29614258 29.23632812 C25.92169631 21.02801973 12.54944262 11.83136417 0 1 C0 0.67 0 0.34 0 0 Z " fill="#1C5FAB" transform="translate(232,515)"/>
<path d="M0 0 C0.33 0 0.66 0 1 0 C1 7.92 1 15.84 1 24 C0.67 24 0.34 24 0 24 C0 19.71 0 15.42 0 11 C-12.87 11 -25.74 11 -39 11 C-39.33 10.34 -39.66 9.68 -40 9 C-30.49432719 8.32176868 -21.08630432 7.78861311 -11.5625 8.375 C-10.8600415 8.41810303 -10.15758301 8.46120605 -9.43383789 8.50561523 C-6.14037405 8.7416986 -3.21996012 9.19500997 0 10 C0 6.7 0 3.4 0 0 Z " fill="#3A9E82" transform="translate(542,407)"/>
<path d="M0 0 C1 3 1 3 0.375 4.9375 C0.189375 5.9584375 0.189375 5.9584375 0 7 C0.474375 7.61875 0.94875 8.2375 1.4375 8.875 C3.49668898 11.67549701 3.2313239 13.60724951 3 17 C2.34 17 1.68 17 1 17 C0.505 14.525 0.505 14.525 0 12 C-0.99 12 -1.98 12 -3 12 C-3 10.68 -3 9.36 -3 8 C-4.21236328 8.12568359 -4.21236328 8.12568359 -5.44921875 8.25390625 C-6.51785156 8.35574219 -7.58648438 8.45757812 -8.6875 8.5625 C-10.27111328 8.71912109 -10.27111328 8.71912109 -11.88671875 8.87890625 C-14.81535455 8.99281806 -17.15593606 8.6098083 -20 8 C-20.33 8.33 -20.66 8.66 -21 9 C-23.01964199 9.07244053 -25.04167124 9.08377188 -27.0625 9.0625 C-28.16722656 9.05347656 -29.27195312 9.04445313 -30.41015625 9.03515625 C-31.69212891 9.01775391 -31.69212891 9.01775391 -33 9 C-33 8.67 -33 8.34 -33 8 C-27.555 7.505 -27.555 7.505 -22 7 C-22 6.34 -22 5.68 -22 5 C-21.01 5 -20.02 5 -19 5 C-18.67 3.68 -18.34 2.36 -18 1 C-17.67 2.32 -17.34 3.64 -17 5 C-15.62714844 4.98259766 -15.62714844 4.98259766 -14.2265625 4.96484375 C-12.44378906 4.95130859 -12.44378906 4.95130859 -10.625 4.9375 C-9.44164062 4.92589844 -8.25828125 4.91429687 -7.0390625 4.90234375 C-4 5 -4 5 -2 6 C-1.34 4.02 -0.68 2.04 0 0 Z " fill="#59BF87" transform="translate(539,390)"/>
<path d="M0 0 C0 0.99 0 1.98 0 3 C-0.66 3.33 -1.32 3.66 -2 4 C-2 3.34 -2 2.68 -2 2 C-30.05 2 -58.1 2 -87 2 C-87 1.67 -87 1.34 -87 1 C-77.28081995 0.86874884 -67.56162954 0.73829971 -57.84242535 0.60884857 C-53.32845729 0.54870189 -48.81449315 0.48828848 -44.30053711 0.42724609 C-39.93686059 0.36824608 -35.5731749 0.30997205 -31.20948219 0.25218201 C-29.55229159 0.23011133 -27.89510434 0.20778777 -26.23792076 0.18519592 C-17.49172742 0.06613052 -8.74726012 -0.03770725 0 0 Z " fill="#3AB1A0" transform="translate(534,406)"/>
<path d="M0 0 C4.75 0.75 4.75 0.75 7 3 C8.73237533 6.46475066 8.48222316 10.21201016 8 14 C6.91801039 16.42464036 5.73981123 17.94385946 4 20 C3.67 20 3.34 20 3 20 C2.92652344 18.71416016 2.92652344 18.71416016 2.8515625 17.40234375 C2.45465756 11.33243544 2.00791601 5.75602589 0 0 Z " fill="#6FC558" transform="translate(473,315)"/>
<path d="M0 0 C1.134375 0.020625 2.26875 0.04125 3.4375 0.0625 C2.10364356 4.06406932 0.38317217 6.11682783 -2.5625 9.0625 C-3.3497678 11.2006966 -3.3497678 11.2006966 -3.5625 13.0625 C-5.2125 13.0625 -6.8625 13.0625 -8.5625 13.0625 C-9.06727602 7.76235182 -7.77067314 5.24284682 -4.5625 1.0625 C-3.5625 0.0625 -3.5625 0.0625 0 0 Z " fill="#72DAEA" transform="translate(294.5625,321.9375)"/>
<path d="M0 0 C9 0 9 0 13 2 C9.7 2 6.4 2 3 2 C2.67 4.97 2.34 7.94 2 11 C3.65 11.33 5.3 11.66 7 12 C6.36320312 12.165 5.72640625 12.33 5.0703125 12.5 C2.58736628 13.94505455 2.58736628 13.94505455 2.2421875 17.625 C2.10130579 19.08166372 1.97962996 20.54028447 1.875 22 C1.23714286 29.76285714 1.23714286 29.76285714 -1 32 C-0.67 21.44 -0.34 10.88 0 0 Z " fill="#97DB72" transform="translate(494,334)"/>
<path d="M0 0 C1.2065625 0.0309375 1.2065625 0.0309375 2.4375 0.0625 C1.96172901 4.34443889 1.41300311 6.08699689 -1.5625 9.0625 C-2.2894226 12.17089021 -2.2894226 12.17089021 -2.5625 15.0625 C-5.0375 14.0725 -5.0375 14.0725 -7.5625 13.0625 C-8.06727602 7.76235182 -6.77067314 5.24284682 -3.5625 1.0625 C-2.5625 0.0625 -2.5625 0.0625 0 0 Z " fill="#C6EA9A" transform="translate(464.5625,321.9375)"/>
<path d="M0 0 C5 1 5 1 6 2 C6.47713492 7.27067643 6.25177863 12.14089875 4 17 C3.01 17.66 2.02 18.32 1 19 C0.67 12.73 0.34 6.46 0 0 Z " fill="#26AECD" transform="translate(304,316)"/>
<path d="M0 0 C0.66 0.33 1.32 0.66 2 1 C-8.53292208 7.76823577 -19.13067796 14.35650394 -30.03051758 20.52075195 C-31.16203247 21.16403442 -31.16203247 21.16403442 -32.31640625 21.8203125 C-32.98099854 22.19430176 -33.64559082 22.56829102 -34.33032227 22.95361328 C-36.16722275 24.01810994 -36.16722275 24.01810994 -38 26 C-40.625 26.125 -40.625 26.125 -43 26 C-39.9376485 23.59610169 -36.75969886 21.63413555 -33.37890625 19.70703125 C-32.28384766 19.07990234 -31.18878906 18.45277344 -30.06054688 17.80664062 C-28.89457604 17.14184853 -27.72855968 16.47713626 -26.5625 15.8125 C-18.30030718 11.09173436 -10.09754164 6.32448368 -2.125 1.125 C-1.073125 0.568125 -1.073125 0.568125 0 0 Z " fill="#2DA2BA" transform="translate(418,571)"/>
<path d="M0 0 C7.92 0 15.84 0 24 0 C24 13.2 24 26.4 24 40 C23.67 40 23.34 40 23 40 C23 27.13 23 14.26 23 1 C12.40109291 1.3537413 12.40109291 1.3537413 2 3 C1.34 3.99 0.68 4.98 0 6 C0 4.02 0 2.04 0 0 Z " fill="#068AD0" transform="translate(738,424)"/>
<path d="M0 0 C0 0.33 0 0.66 0 1 C-0.64066406 1.07476562 -1.28132813 1.14953125 -1.94140625 1.2265625 C-8.35608871 2.20167071 -12.85336352 3.85245127 -17 9 C-19.64881636 13.5291029 -20.40006178 16.92289123 -20.51171875 22.1484375 C-20.52966995 22.80582916 -20.54762115 23.46322083 -20.56611633 24.14053345 C-20.61984437 26.21862572 -20.65399125 28.29649347 -20.6875 30.375 C-20.72070653 31.79299976 -20.75519924 33.21097001 -20.79101562 34.62890625 C-20.87554651 38.0857218 -20.94253568 41.54261638 -21 45 C-21.33 45 -21.66 45 -22 45 C-22.12476245 40.75001523 -22.21487534 36.50103506 -22.2746582 32.24975586 C-22.29961056 30.8075094 -22.33358606 29.36538686 -22.37719727 27.92358398 C-22.63022927 19.33538019 -22.67775166 12.02023837 -17 5 C-11.57753623 -0.29020855 -7.2144184 -0.12024031 0 0 Z " fill="#67D6E9" transform="translate(303,314)"/>
<path d="M0 0 C0.33 0 0.66 0 1 0 C1.2475 0.94875 1.495 1.8975 1.75 2.875 C2.6857077 6.08693191 2.6857077 6.08693191 5.125 7.375 C5.74375 7.58125 6.3625 7.7875 7 8 C7 8.66 7 9.32 7 10 C5.33720673 11.0064275 3.67016516 12.00585407 2 13 C1.01 14.485 1.01 14.485 0 16 C-0.391875 15.21625 -0.78375 14.4325 -1.1875 13.625 C-3.24274669 10.64843582 -4.59679258 10.01176437 -8 9 C-7.401875 8.731875 -6.80375 8.46375 -6.1875 8.1875 C-3.12739306 6.52629909 -1.37335723 5.18795481 -0.3125 1.8125 C-0.1578125 0.9153125 -0.1578125 0.9153125 0 0 Z " fill="#36B0EC" transform="translate(509,274)"/>
<path d="M0 0 C2.3910563 3.58658445 2.28990081 6.16766654 2.265625 10.30859375 C2.26753845 11.03055435 2.2694519 11.75251495 2.27142334 12.49635315 C2.27278463 14.02874092 2.26909208 15.56114024 2.26074219 17.09350586 C2.25018148 19.39790086 2.26056532 21.70149092 2.2734375 24.00585938 C2.2803516 32.52922222 1.78830817 40.62570726 0 49 C-0.33 49 -0.66 49 -1 49 C-1 45.04 -1 41.08 -1 37 C-1.99 37.495 -1.99 37.495 -3 38 C-1.125 32.125 -1.125 32.125 0 31 C0.08790975 28.70848583 0.10694038 26.41427476 0.09765625 24.12109375 C0.0962413 23.4344313 0.09482635 22.74776886 0.09336853 22.04029846 C0.08775479 19.83932199 0.07520007 17.63844591 0.0625 15.4375 C0.05748676 13.94856917 0.05292355 12.45963676 0.04882812 10.97070312 C0.03778093 7.31376925 0.02050713 3.65689442 0 0 Z " fill="#53A746" transform="translate(587,422)"/>
<path d="M0 0 C0.66 0.33 1.32 0.66 2 1 C-0.3577501 3.3577501 -1.027875 3.29966991 -4.24609375 3.52734375 C-5.08333984 3.59759766 -5.92058594 3.66785156 -6.78320312 3.74023438 C-8.54856453 3.87143489 -10.31419566 3.99905661 -12.08007812 4.12304688 C-12.91861328 4.19458984 -13.75714844 4.26613281 -14.62109375 4.33984375 C-15.77242798 4.42286743 -15.77242798 4.42286743 -16.94702148 4.50756836 C-19.57186035 5.1371676 -20.39901747 5.82746525 -22 8 C-22.66 9.98 -23.32 11.96 -24 14 C-18.72 14 -13.44 14 -8 14 C-8 14.33 -8 14.66 -8 15 C-13.61 15 -19.22 15 -25 15 C-25 14.34 -25 13.68 -25 13 C-25.66 12.67 -26.32 12.34 -27 12 C-26.67 11.34 -26.34 10.68 -26 10 C-25.34 10 -24.68 10 -24 10 C-23.9175 9.4225 -23.835 8.845 -23.75 8.25 C-22.71687511 5.15062532 -21.61387067 3.9952273 -19 2 C-16.13166749 1.39415004 -13.29971732 1.34930433 -10.375 1.3125 C-5.02373399 1.41426788 -5.02373399 1.41426788 0 0 Z " fill="#3BB5EB" transform="translate(238,393)"/>
<path d="M0 0 C2.27795022 2.27795022 3.05219877 3.93787293 4 7 C3.67133535 8.33449183 3.33730009 9.66766463 3 11 C2.98093809 12.7291871 3.00513805 14.45915947 3.0625 16.1875 C3.11007403 20.65945908 2.61637066 24.53786213 1.50390625 28.85546875 C0.98222843 31.07563249 0.72158193 33.23180678 0.5 35.5 C0.335 36.655 0.17 37.81 0 39 C-0.99 39.495 -0.99 39.495 -2 40 C-1.85552017 38.49986903 -1.70932785 36.99990298 -1.5625 35.5 C-1.48128906 34.6646875 -1.40007813 33.829375 -1.31640625 32.96875 C-1.08155695 30.76522574 -0.79007689 28.56758349 -0.46875 26.375 C0.20048837 21.09107875 0.10785906 15.8174778 0.0625 10.5 C0.05798828 9.48679687 0.05347656 8.47359375 0.04882812 7.4296875 C0.03714593 4.95306173 0.02076582 2.47656343 0 0 Z " fill="#75BA52" transform="translate(577,386)"/>
<path d="M0 0 C4.95 0 9.9 0 15 0 C17.03577727 18.68480726 17.03577727 18.68480726 12.12890625 25.6640625 C11.75636719 26.10492188 11.38382813 26.54578125 11 27 C9.57276996 24.14553992 10.50577369 22.6633048 11.375 19.625 C13.02955332 13.38453862 13.61678569 7.4380004 14 1 C9.38 1 4.76 1 0 1 C0 0.67 0 0.34 0 0 Z " fill="#C4D8E0" transform="translate(527,418)"/>
<path d="M0 0 C4.58675734 -0.46770155 6.50880941 0.73777158 10.0625 3.5625 C15.76405973 7.92023162 21.74148342 11.5048424 28 15 C27.01 15.495 27.01 15.495 26 16 C24.24755859 15.27490234 24.24755859 15.27490234 22.1484375 14.0859375 C20.99408203 13.43818359 20.99408203 13.43818359 19.81640625 12.77734375 C19.01074219 12.31457031 18.20507812 11.85179687 17.375 11.375 C16.59253906 10.93542969 15.81007813 10.49585938 15.00390625 10.04296875 C3.98026654 3.80903651 3.98026654 3.80903651 0 1 C0 0.67 0 0.34 0 0 Z " fill="#3574CB" transform="translate(257,534)"/>
<path d="M0 0 C0.66 0 1.32 0 2 0 C2.44730469 0.86882812 2.89460937 1.73765625 3.35546875 2.6328125 C7.08422043 9.99410476 7.08422043 9.99410476 11.9375 16.625 C14 19 14 19 14 22 C13.67 22.66 13.34 23.32 13 24 C0 3.41935484 0 3.41935484 0 0 Z " fill="#25B6E9" transform="translate(193,501)"/>
<path d="M0 0 C0.33 0 0.66 0 1 0 C1.99640721 5.72934145 2.07968356 11.18310013 2 17 C6.29 17.33 10.58 17.66 15 18 C15 18.33 15 18.66 15 19 C10.05 19 5.1 19 0 19 C0 12.73 0 6.46 0 0 Z " fill="#98CD75" transform="translate(1287,456)"/>
<path d="M0 0 C0.99 1.32 1.98 2.64 3 4 C3.99 2.68 4.98 1.36 6 0 C5.41347648 4.48993869 4.2356462 8.22543184 2.4375 12.375 C1.98246094 13.43460937 1.52742187 14.49421875 1.05859375 15.5859375 C0.70925781 16.38257813 0.35992188 17.17921875 0 18 C-1.30062431 14.18483536 -0.89369853 10.72438237 -0.5625 6.75 C-0.46066406 5.48671875 -0.35882812 4.2234375 -0.25390625 2.921875 C-0.17011719 1.95765625 -0.08632813 0.9934375 0 0 Z " fill="#589F32" transform="translate(543,417)"/>
<path d="M0 0 C3.3 0 6.6 0 10 0 C10.33 1.32 10.66 2.64 11 4 C7.37 4 3.74 4 0 4 C0 2.68 0 1.36 0 0 Z " fill="#E6F7FC" transform="translate(239,394)"/>
<path d="M0 0 C5.15171623 -0.09038099 9.91913204 0.15318867 15 1 C15 2.65 15 4.3 15 6 C13.02 6 11.04 6 9 6 C8.7215625 5.0409375 8.7215625 5.0409375 8.4375 4.0625 C7.05753944 1.57873787 7.05753944 1.57873787 3.375 1.25 C2.26125 1.1675 1.1475 1.085 0 1 C0 0.67 0 0.34 0 0 Z " fill="#50C1ED" transform="translate(228,406)"/>
<path d="M0 0 C2.92869654 2.82410024 5.58427923 5.72152181 8 9 C8 9.66 8 10.32 8 11 C7.01 11.495 7.01 11.495 6 12 C6.66 14.97 7.32 17.94 8 21 C5.93767301 18.93767301 5.43191516 17.84405969 4.4921875 15.15625 C4.22792969 14.40472656 3.96367187 13.65320313 3.69140625 12.87890625 C3.42199219 12.09386719 3.15257812 11.30882812 2.875 10.5 C2.59785156 9.71496094 2.32070312 8.92992187 2.03515625 8.12109375 C0 2.27628541 0 2.27628541 0 0 Z " fill="#2DC5F1" transform="translate(184,477)"/>
<path d="M0 0 C1.45742463 -0.08096803 2.91612807 -0.13917774 4.375 -0.1875 C5.18710937 -0.22230469 5.99921875 -0.25710938 6.8359375 -0.29296875 C7.55007813 -0.19628906 8.26421875 -0.09960938 9 0 C9.66 0.99 10.32 1.98 11 3 C10 4 10 4 7.49609375 4.09765625 C5.98208984 4.08025391 5.98208984 4.08025391 4.4375 4.0625 C3.42558594 4.05347656 2.41367187 4.04445313 1.37109375 4.03515625 C0.58863281 4.02355469 -0.19382812 4.01195312 -1 4 C-0.67 2.68 -0.34 1.36 0 0 Z " fill="#DBF2E6" transform="translate(507,394)"/>
<path d="M0 0 C0.66 0.33 1.32 0.66 2 1 C1.5153125 1.3403125 1.030625 1.680625 0.53125 2.03125 C-4.82582354 5.90482625 -9.44007381 10.22177947 -14 15 C-14.66 14.67 -15.32 14.34 -16 14 C-11.32526851 8.07767135 -6.4718234 3.87428884 0 0 Z " fill="#1E8FCE" transform="translate(801,458)"/>
<path d="M0 0 C1.65 0.33 3.3 0.66 5 1 C0.881353 4.72006826 -3.71715318 7.30824355 -9 9 C-9.66 8.67 -10.32 8.34 -11 8 C-10.01 7.67 -9.02 7.34 -8 7 C-7.731875 6.34 -7.46375 5.68 -7.1875 5 C-6.795625 4.34 -6.40375 3.68 -6 3 C-2.875 2.25 -2.875 2.25 0 2 C0 1.34 0 0.68 0 0 Z " fill="#19559D" transform="translate(363,590)"/>
<path d="M0 0 C7.92 0 15.84 0 24 0 C24 0.33 24 0.66 24 1 C22.74703125 1.06058594 21.4940625 1.12117188 20.203125 1.18359375 C18.55207276 1.26802256 16.90103165 1.35266939 15.25 1.4375 C14.425 1.47681641 13.6 1.51613281 12.75 1.55664062 C11.95078125 1.59853516 11.1515625 1.64042969 10.328125 1.68359375 C9.5949707 1.72025146 8.86181641 1.75690918 8.10644531 1.79467773 C5.93223907 2.00660488 4.05888529 2.25868203 2 3 C1.34 3.99 0.68 4.98 0 6 C0 4.02 0 2.04 0 0 Z " fill="#2497D4" transform="translate(738,424)"/>
<path d="M0 0 C-0.66 1.32 -1.32 2.64 -2 4 C-5.63 3.67 -9.26 3.34 -13 3 C-13 2.34 -13 1.68 -13 1 C-11.39796533 0.63631108 -9.79325797 0.28438048 -8.1875 -0.0625 C-7.29417969 -0.25972656 -6.40085937 -0.45695312 -5.48046875 -0.66015625 C-3 -1 -3 -1 0 0 Z " fill="#63D7EB" transform="translate(570,317)"/>
<path d="M0 0 C3.94139078 1.66751148 6.7892812 4.22710649 10 7 C7.64656559 7.84051229 6.31555804 8.08353007 3.875 7.4375 C1.21745528 5.40004905 0.82658804 3.16858749 0 0 Z " fill="#165FB7" transform="translate(250,526)"/>
<path d="M0 0 C3 1 3 1 5 4 C5.125 7.1875 5.125 7.1875 5 10 C4.34 10 3.68 10 3 10 C2.67 8.35 2.34 6.7 2 5 C1.01 5 0.02 5 -1 5 C-0.67 3.35 -0.34 1.7 0 0 Z " fill="#3EA083" transform="translate(537,397)"/>
<path d="M0 0 C0.66 0.66 1.32 1.32 2 2 C4.73434962 2.3063859 7.38279821 2.5113336 10.125 2.625 C10.87910156 2.66367187 11.63320313 2.70234375 12.41015625 2.7421875 C14.27303184 2.83651031 16.13648255 2.91934662 18 3 C18 3.33 18 3.66 18 4 C7.605 4.495 7.605 4.495 -3 5 C-2.01 3.35 -1.02 1.7 0 0 Z " fill="#52D2CC" transform="translate(392,393)"/>
<path d="M0 0 C4.54805635 -0.17835515 7.8794254 0.00214565 12 2 C11.01 2.495 11.01 2.495 10 3 C10 3.66 10 4.32 10 5 C5 3 5 3 0 1 C0 0.67 0 0.34 0 0 Z " fill="#93C84A" transform="translate(507,336)"/>
<path d="M0 0 C0.66 0.33 1.32 0.66 2 1 C1.34 4.96 0.68 8.92 0 13 C-2 12 -2 12 -2.6328125 10.15234375 C-2.79523438 9.42144531 -2.95765625 8.69054687 -3.125 7.9375 C-3.29257812 7.20402344 -3.46015625 6.47054688 -3.6328125 5.71484375 C-3.75398438 5.14894531 -3.87515625 4.58304687 -4 4 C-2.68 4 -1.36 4 0 4 C0 2.68 0 1.36 0 0 Z " fill="#44C8DE" transform="translate(291,331)"/>
<path d="M0 0 C4.29 1.32 8.58 2.64 13 4 C13 4.66 13 5.32 13 6 C8.15340923 5.40895235 4.39251833 4.02055843 0 2 C0 1.34 0 0.68 0 0 Z " fill="#E2EBF5" transform="translate(304,559)"/>
<path d="M0 0 C0.33 0 0.66 0 1 0 C1.08126087 2.08268593 1.13930839 4.16628658 1.1875 6.25 C1.23970703 7.99023438 1.23970703 7.99023438 1.29296875 9.765625 C0.97982934 13.22268407 0.34290892 14.51565563 -2 17 C-1.38273804 11.32644329 -0.72054048 5.66138945 0 0 Z " fill="#126FA7" transform="translate(314,326)"/>
<path d="M0 0 C0.66 0.66 1.32 1.32 2 2 C0.35 4.97 -1.3 7.94 -3 11 C-4.25460729 8.49078542 -3.86211613 7.61169775 -3.1875 4.9375 C-3.01605469 4.22464844 -2.84460938 3.51179688 -2.66796875 2.77734375 C-2 1 -2 1 0 0 Z " fill="#ABD1B6" transform="translate(541,434)"/>
<path d="M0 0 C0 0.33 0 0.66 0 1 C-1.3921875 1.1546875 -1.3921875 1.1546875 -2.8125 1.3125 C-6.03254358 2.0070192 -7.02579865 2.47740939 -9 5 C-9 4.01 -9 3.02 -9 2 C-10.98 2 -12.96 2 -15 2 C-15 1.67 -15 1.34 -15 1 C-9.94997778 -0.03590199 -5.12583611 -0.10251672 0 0 Z " fill="#34B1EA" transform="translate(252,407)"/>
<path d="M0 0 C0 0.99 0 1.98 0 3 C-0.66 2.67 -1.32 2.34 -2 2 C-1.34 1.34 -0.68 0.68 0 0 Z M-4 3 C-3.34 3 -2.68 3 -2 3 C-3.49097658 6.7952131 -5.75700849 8.61042731 -9 11 C-7.63055898 8.05043472 -6.12169591 5.47531189 -4 3 Z " fill="#64C071" transform="translate(1043,430)"/>
<path d="M0 0 C3.96 0.33 7.92 0.66 12 1 C12 1.33 12 1.66 12 2 C8.04 2.66 4.08 3.32 0 4 C0 2.66666667 0 1.33333333 0 0 Z " fill="#2CADEA" transform="translate(602,317)"/>
<path d="M0 0 C2.64 0 5.28 0 8 0 C8 0.99 8 1.98 8 3 C5.125 3.1875 5.125 3.1875 2 3 C1.34 2.01 0.68 1.02 0 0 Z " fill="#9CE3FA" transform="translate(235,409)"/>
<path d="M0 0 C2.62187494 1.04874998 3.79371361 1.64931313 5.25 4.125 C5.4975 4.74375 5.745 5.3625 6 6 C5.01 6 4.02 6 3 6 C3 7.65 3 9.3 3 11 C2.67 11 2.34 11 2 11 C1.93941406 10.37351562 1.87882812 9.74703125 1.81640625 9.1015625 C1.73261719 8.28429687 1.64882813 7.46703125 1.5625 6.625 C1.48128906 5.81289063 1.40007812 5.00078125 1.31640625 4.1640625 C1.10909886 1.95727195 1.10909886 1.95727195 0 0 Z " fill="#46A04F" transform="translate(479,318)"/>
<path d="M0 0 C0.66 0.33 1.32 0.66 2 1 C1.34 1.433125 0.68 1.86625 0 2.3125 C-0.66 2.869375 -1.32 3.42625 -2 4 C-2 4.99 -2 5.98 -2 7 C-3.32 5.68 -4.64 4.36 -6 3 C-4.03533587 1.93224776 -2.03144641 0.93446535 0 0 Z " fill="#369BDD" transform="translate(316,625)"/>
<path d="M0 0 C0.33 0.99 0.66 1.98 1 3 C0.2884375 3.6496875 0.2884375 3.6496875 -0.4375 4.3125 C-2.23686957 6.02309613 -2.23686957 6.02309613 -3 9 C-3.66 9 -4.32 9 -5 9 C-3.90931332 5.22454612 -3.0916909 2.52956528 0 0 Z " fill="#B2E577" transform="translate(458,318)"/>
<path d="M0 0 C1.64826111 2.96687001 2.44271087 5.65626525 3 9 C1.68 8.67 0.36 8.34 -1 8 C-0.67 5.36 -0.34 2.72 0 0 Z " fill="#59DEED" transform="translate(540,265)"/>
<path d="M0 0 C3.65316671 1.24976756 4.78065836 1.67098753 7 5 C5.6078125 4.505 5.6078125 4.505 4.1875 4 C1.07970709 2.85032996 1.07970709 2.85032996 -2 3 C-1.34 2.01 -0.68 1.02 0 0 Z " fill="#35937E" transform="translate(1037,509)"/>
<path d="M0 0 C0.99 0.99 1.98 1.98 3 3 C2.01 5.64 1.02 8.28 0 11 C-1.35015859 6.94952424 -0.62084998 4.2079832 0 0 Z " fill="#2397C1" transform="translate(310,319)"/>
</svg>
